# xmcd
#
# Track frame offsets: 
#        150
#        11244
#        26794
#        42788
#        53768
#        72819
#        86946
#        103410
#        120633
#        138292
#        154897
#        169179
#        184978
#        195145
#
# Disc length: 2773 seconds
#
# Revision: 0
# Processed by: cddbd v1.5.2PL0 Copyright (c) Steve Scherf et al.
# Submitted via: ExactAudioCopyFreeDBPlugin 1.0
#
DISCID=c10ad30e
DTITLE=Hege Bringsverd - From a Cowgirl's Heart
DYEAR=2011
DGENRE=
TTITLE0=Sick And Tired
TTITLE1=Lets Put Love Back To Work
TTITLE2=When I Get Over You
TTITLE3=Down To My Last Broken Heart
TTITLE4=Mommy Do You Think I'll Get To Heaven
TTITLE5=Fightin' Side Of Me
TTITLE6=Where Does Love Go (When It's Gone)
TTITLE7=If You Can Touch Her At All
TTITLE8=Suds In The Bucket
TTITLE9=Walk The Way The Wind Blows
TTITLE10=Nobody But A Fool
TTITLE11=If You Leave Me (I'll Go Crazy)
TTITLE12=Don't Look Now
TTITLE13=Jose Cuervo
EXTD=
EXTT0=
EXTT1=
EXTT2=
EXTT3=
EXTT4=
EXTT5=
EXTT6=
EXTT7=
EXTT8=
EXTT9=
EXTT10=
EXTT11=
EXTT12=
EXTT13=
PLAYORDER=
